<svg width="635" height="311" viewBox="0 0 635 311" fill="none" xmlns="http://www.w3.org/2000/svg">
<path d="M109.87 107.648H68.8536V303.671H109.87V107.648Z" fill="#333333"/>
<path d="M98.5592 97.7104H79.9155V108.766H98.5592V97.7104Z" fill="#333333"/>
<path d="M94.7062 91.2507H83.8929V97.586H94.7062V91.2507Z" fill="#333333"/>
<path d="M88.6159 107.275L89.3617 0.444336L89.9832 107.275H88.6159Z" fill="#333333"/>
<path opacity="0.09" d="M91.4746 122.431H87.1245V126.778H91.4746V122.431Z" fill="white"/>
<path opacity="0.33" d="M91.4746 136.219H87.1245V140.567H91.4746V136.219Z" fill="white"/>
<path opacity="0.37" d="M91.4746 150.132H87.1245V154.48H91.4746V150.132Z" fill="white"/>
<path opacity="0.14" d="M91.4746 163.921H87.1245V168.269H91.4746V163.921Z" fill="white"/>
<path opacity="0.3" d="M91.4746 177.834H87.1245V182.182H91.4746V177.834Z" fill="white"/>
<path opacity="0.16" d="M91.4746 191.622H87.1245V195.97H91.4746V191.622Z" fill="white"/>
<path opacity="0.34" d="M91.4746 205.535H87.1245V209.883H91.4746V205.535Z" fill="white"/>
<path opacity="0.29" d="M91.4746 219.324H87.1245V223.672H91.4746V219.324Z" fill="white"/>
<path opacity="0.12" d="M91.4746 233.237H87.1245V237.585H91.4746V233.237Z" fill="white"/>
<path d="M34.9221 151.996H-93.595V323.05H34.9221V151.996Z" fill="#4D4D4D"/>
<path d="M1.23921 159.076H-5.5968V165.908H1.23921V159.076Z" fill="white"/>
<path d="M10.3125 159.076H3.47644V165.908H10.3125V159.076Z" fill="white"/>
<path d="M1.23921 168.02H-5.5968V174.853H1.23921V168.02Z" fill="white"/>
<path d="M10.3125 168.02H3.47644V174.853H10.3125V168.02Z" fill="white"/>
<path d="M1.23921 176.964H-5.5968V183.797H1.23921V176.964Z" fill="white"/>
<path d="M10.3125 176.964H3.47644V183.797H10.3125V176.964Z" fill="white"/>
<path d="M1.23921 185.784H-5.5968V192.616H1.23921V185.784Z" fill="white"/>
<path d="M10.3125 185.784H3.47644V192.616H10.3125V185.784Z" fill="white"/>
<path d="M1.23921 194.728H-5.5968V201.56H1.23921V194.728Z" fill="white"/>
<path d="M10.3125 194.728H3.47644V201.56H10.3125V194.728Z" fill="white"/>
<path d="M1.23921 203.672H-5.5968V210.504H1.23921V203.672Z" fill="white"/>
<path d="M10.3125 203.672H3.47644V210.504H10.3125V203.672Z" fill="white"/>
<path d="M1.23921 212.616H-5.5968V219.448H1.23921V212.616Z" fill="white"/>
<path d="M10.3125 212.616H3.47644V219.448H10.3125V212.616Z" fill="white"/>
<path d="M1.23921 221.56H-5.5968V228.392H1.23921V221.56Z" fill="white"/>
<path d="M10.3125 221.56H3.47644V228.392H10.3125V221.56Z" fill="white"/>
<path d="M1.23921 230.38H-5.5968V237.212H1.23921V230.38Z" fill="white"/>
<path d="M10.3125 230.38H3.47644V237.212H10.3125V230.38Z" fill="white"/>
<path d="M1.23921 239.324H-5.5968V246.156H1.23921V239.324Z" fill="white"/>
<path d="M10.3125 239.324H3.47644V246.156H10.3125V239.324Z" fill="white"/>
<path d="M1.23921 248.268H-5.5968V255.1H1.23921V248.268Z" fill="white"/>
<path d="M10.3125 248.268H3.47644V255.1H10.3125V248.268Z" fill="white"/>
<path d="M1.23921 257.212H-5.5968V264.044H1.23921V257.212Z" fill="white"/>
<path d="M10.3125 257.212H3.47644V264.044H10.3125V257.212Z" fill="white"/>
<path d="M1.23921 266.156H-5.5968V272.988H1.23921V266.156Z" fill="white"/>
<path d="M10.3125 266.156H3.47644V272.988H10.3125V266.156Z" fill="white"/>
<path d="M1.23921 274.976H-5.5968V281.808H1.23921V274.976Z" fill="white"/>
<path d="M10.3125 274.976H3.47644V281.808H10.3125V274.976Z" fill="white"/>
<path d="M19.3858 274.976H12.5497V281.808H19.3858V274.976Z" fill="white"/>
<path d="M1.23921 283.92H-5.5968V290.752H1.23921V283.92Z" fill="white"/>
<path d="M10.3125 283.92H3.47644V290.752H10.3125V283.92Z" fill="white"/>
<path d="M19.3858 283.92H12.5497V290.752H19.3858V283.92Z" fill="white"/>
<path d="M1.23921 292.864H-5.5968V299.696H1.23921V292.864Z" fill="white"/>
<path d="M10.3125 292.864H3.47644V299.696H10.3125V292.864Z" fill="white"/>
<path d="M19.3858 292.864H12.5497V299.696H19.3858V292.864Z" fill="white"/>
<path d="M1.23921 301.808H-5.5968V308.64H1.23921V301.808Z" fill="white"/>
<path d="M10.3125 301.808H3.47644V308.64H10.3125V301.808Z" fill="white"/>
<path d="M19.3858 301.808H12.5497V308.64H19.3858V301.808Z" fill="white"/>
<path d="M1.23921 310.751H-5.5968V317.584H1.23921V310.751Z" fill="white"/>
<path d="M10.3125 310.751H3.47644V317.584H10.3125V310.751Z" fill="white"/>
<path d="M19.3858 310.751H12.5497V317.584H19.3858V310.751Z" fill="white"/>
<path d="M15.9056 134.604H-74.5784V151.996H15.9056V134.604Z" fill="#4D4D4D"/>
<path opacity="0.19" d="M19.3858 159.076H12.5497V165.908H19.3858V159.076Z" fill="white"/>
<path opacity="0.24" d="M19.3858 168.02H12.5497V174.852H19.3858V168.02Z" fill="white"/>
<path opacity="0.29" d="M19.3858 176.964H12.5497V183.796H19.3858V176.964Z" fill="white"/>
<path opacity="0.39" d="M19.3858 185.784H12.5497V192.616H19.3858V185.784Z" fill="white"/>
<path opacity="0.21" d="M19.3858 194.728H12.5497V201.56H19.3858V194.728Z" fill="white"/>
<path opacity="0.48" d="M19.3858 203.672H12.5497V210.504H19.3858V203.672Z" fill="white"/>
<path opacity="0.32" d="M19.3858 212.616H12.5497V219.448H19.3858V212.616Z" fill="white"/>
<path opacity="0.13" d="M19.3858 221.56H12.5497V228.392H19.3858V221.56Z" fill="white"/>
<path opacity="0.19" d="M19.3858 230.38H12.5497V237.212H19.3858V230.38Z" fill="white"/>
<path opacity="0.03" d="M19.3858 239.324H12.5497V246.156H19.3858V239.324Z" fill="white"/>
<path opacity="0.36" d="M19.3858 248.268H12.5497V255.1H19.3858V248.268Z" fill="white"/>
<path opacity="0.25" d="M19.3858 257.212H12.5497V264.044H19.3858V257.212Z" fill="white"/>
<path d="M19.3858 266.156H12.5497V272.988H19.3858V266.156Z" fill="white"/>
<path d="M295.436 229.634H254.42V325.658H295.436V229.634Z" fill="#333333"/>
<path d="M273.064 224.79H254.42V230.255H273.064V224.79Z" fill="#333333"/>
<path d="M265.234 221.684H254.42V224.79H265.234V221.684Z" fill="#333333"/>
<path opacity="0.06" d="M278.284 236.342H271.573V241.311H278.284V236.342Z" fill="white"/>
<path opacity="0.12" d="M278.284 248.64H271.573V253.609H278.284V248.64Z" fill="white"/>
<path opacity="0.19" d="M278.284 273.236H271.573V278.205H278.284V273.236Z" fill="white"/>
<path opacity="0.14" d="M278.284 297.832H271.573V302.801H278.284V297.832Z" fill="white"/>
<path opacity="0.1" d="M278.284 310.13H271.573V315.099H278.284V310.13Z" fill="white"/>
<path d="M192.523 240.069H136.344V291.497H192.523V240.069Z" fill="#333333"/>
<path d="M183.699 235.473H145.293V257.584H183.699V235.473Z" fill="#333333"/>
<path d="M196.625 272.491H140.445V323.919H196.625V272.491Z" fill="#333333"/>
<path d="M187.676 267.895H149.27V290.006H187.676V267.895Z" fill="#333333"/>
<path d="M271.448 265.659H215.269V324.913H271.448V265.659Z" fill="#333333"/>
<path d="M262.624 260.441H224.218V286.031H262.624V260.441Z" fill="#333333"/>
<path d="M459.501 283.671H403.321V340.938H459.501V283.671Z" fill="#333333"/>
<path d="M450.676 278.578H412.27V303.298H450.676V278.578Z" fill="#333333"/>
<path d="M337.695 165.411H274.928V324.789H337.695V165.411Z" fill="#333333"/>
<path opacity="0.46" d="M293.199 172.616H278.036V175.474H293.199V172.616Z" fill="#E6E6E6"/>
<path opacity="0.34" d="M313.956 172.616H298.792V175.474H313.956V172.616Z" fill="#E6E6E6"/>
<path opacity="0.52" d="M334.588 172.616H319.425V175.474H334.588V172.616Z" fill="#E6E6E6"/>
<path opacity="0.54" d="M293.199 179.2H278.036V182.057H293.199V179.2Z" fill="#E6E6E6"/>
<path opacity="0.3" d="M313.956 179.2H298.792V182.057H313.956V179.2Z" fill="#E6E6E6"/>
<path opacity="0.06" d="M334.588 179.2H319.425V182.057H334.588V179.2Z" fill="#E6E6E6"/>
<path opacity="0.15" d="M293.199 185.784H278.036V188.641H293.199V185.784Z" fill="#E6E6E6"/>
<path opacity="0.42" d="M313.956 185.784H298.792V188.641H313.956V185.784Z" fill="#E6E6E6"/>
<path opacity="0.48" d="M334.588 185.784H319.425V188.641H334.588V185.784Z" fill="#E6E6E6"/>
<path opacity="0.18" d="M293.199 192.368H278.036V195.225H293.199V192.368Z" fill="#E6E6E6"/>
<path opacity="0.28" d="M334.588 192.368H319.425V195.225H334.588V192.368Z" fill="#E6E6E6"/>
<path opacity="0.29" d="M293.199 198.951H278.036V201.809H293.199V198.951Z" fill="#E6E6E6"/>
<path opacity="0.28" d="M313.956 198.951H298.792V201.809H313.956V198.951Z" fill="#E6E6E6"/>
<path opacity="0.56" d="M334.588 198.951H319.425V201.809H334.588V198.951Z" fill="#E6E6E6"/>
<path opacity="0.41" d="M293.199 205.535H278.036V208.392H293.199V205.535Z" fill="#E6E6E6"/>
<path opacity="0.16" d="M313.956 205.535H298.792V208.392H313.956V205.535Z" fill="#E6E6E6"/>
<path opacity="0.4" d="M334.588 205.535H319.425V208.392H334.588V205.535Z" fill="#E6E6E6"/>
<path opacity="0.1" d="M293.199 212.119H278.036V214.976H293.199V212.119Z" fill="#E6E6E6"/>
<path opacity="0.17" d="M313.956 212.119H298.792V214.976H313.956V212.119Z" fill="#E6E6E6"/>
<path opacity="0.08" d="M334.588 212.119H319.425V214.976H334.588V212.119Z" fill="#E6E6E6"/>
<path opacity="0.49" d="M293.199 218.703H278.036V221.56H293.199V218.703Z" fill="#E6E6E6"/>
<path opacity="0.58" d="M313.956 218.703H298.792V221.56H313.956V218.703Z" fill="#E6E6E6"/>
<path opacity="0.58" d="M334.588 218.703H319.425V221.56H334.588V218.703Z" fill="#E6E6E6"/>
<path opacity="0.26" d="M293.199 225.287H278.036V228.144H293.199V225.287Z" fill="#E6E6E6"/>
<path opacity="0.37" d="M313.956 225.287H298.792V228.144H313.956V225.287Z" fill="#E6E6E6"/>
<path opacity="0.34" d="M334.588 225.287H319.425V228.144H334.588V225.287Z" fill="#E6E6E6"/>
<path opacity="0.55" d="M293.199 231.87H278.036V234.727H293.199V231.87Z" fill="#E6E6E6"/>
<path opacity="0.12" d="M313.956 231.87H298.792V234.727H313.956V231.87Z" fill="#E6E6E6"/>
<path opacity="0.6" d="M334.588 231.87H319.425V234.727H334.588V231.87Z" fill="#E6E6E6"/>
<path opacity="0.02" d="M293.199 238.454H278.036V241.311H293.199V238.454Z" fill="#E6E6E6"/>
<path opacity="0.28" d="M313.956 238.454H298.792V241.311H313.956V238.454Z" fill="#E6E6E6"/>
<path opacity="0.21" d="M334.588 238.454H319.425V241.311H334.588V238.454Z" fill="#E6E6E6"/>
<path opacity="0.57" d="M293.199 245.038H278.036V247.895H293.199V245.038Z" fill="#E6E6E6"/>
<path opacity="0.38" d="M313.956 245.038H298.792V247.895H313.956V245.038Z" fill="#E6E6E6"/>
<path opacity="0.25" d="M334.588 245.038H319.425V247.895H334.588V245.038Z" fill="#E6E6E6"/>
<path opacity="0.15" d="M293.199 251.622H278.036V254.479H293.199V251.622Z" fill="#E6E6E6"/>
<path opacity="0.47" d="M313.956 251.622H298.792V254.479H313.956V251.622Z" fill="#E6E6E6"/>
<path opacity="0.3" d="M334.588 251.622H319.425V254.479H334.588V251.622Z" fill="#E6E6E6"/>
<path opacity="0.4" d="M293.199 258.206H278.036V261.063H293.199V258.206Z" fill="#E6E6E6"/>
<path opacity="0.39" d="M313.956 258.206H298.792V261.063H313.956V258.206Z" fill="#E6E6E6"/>
<path opacity="0.24" d="M334.588 258.206H319.425V261.063H334.588V258.206Z" fill="#E6E6E6"/>
<path opacity="0.46" d="M293.199 264.789H278.036V267.646H293.199V264.789Z" fill="#E6E6E6"/>
<path opacity="0.22" d="M313.956 264.789H298.792V267.646H313.956V264.789Z" fill="#E6E6E6"/>
<path opacity="0.11" d="M334.588 264.789H319.425V267.646H334.588V264.789Z" fill="#E6E6E6"/>
<path opacity="0.11" d="M313.956 271.373H298.792V274.23H313.956V271.373Z" fill="#E6E6E6"/>
<path opacity="0.02" d="M334.588 271.373H319.425V274.23H334.588V271.373Z" fill="#E6E6E6"/>
<path opacity="0.27" d="M293.199 277.957H278.036V280.814H293.199V277.957Z" fill="#E6E6E6"/>
<path opacity="0.21" d="M313.956 277.957H298.792V280.814H313.956V277.957Z" fill="#E6E6E6"/>
<path opacity="0.49" d="M334.588 277.957H319.425V280.814H334.588V277.957Z" fill="#E6E6E6"/>
<path opacity="0.6" d="M293.199 284.541H278.036V287.398H293.199V284.541Z" fill="#E6E6E6"/>
<path opacity="0.31" d="M313.956 284.541H298.792V287.398H313.956V284.541Z" fill="#E6E6E6"/>
<path opacity="0.22" d="M334.588 284.541H319.425V287.398H334.588V284.541Z" fill="#E6E6E6"/>
<path opacity="0.54" d="M293.199 291.125H278.036V293.982H293.199V291.125Z" fill="#E6E6E6"/>
<path opacity="0.6" d="M313.956 291.125H298.792V293.982H313.956V291.125Z" fill="#E6E6E6"/>
<path opacity="0.08" d="M334.588 291.125H319.425V293.982H334.588V291.125Z" fill="#E6E6E6"/>
<path opacity="0.55" d="M313.956 297.708H298.792V300.565H313.956V297.708Z" fill="#E6E6E6"/>
<path d="M334.588 297.708H319.425V300.565H334.588V297.708Z" fill="#E6E6E6"/>
<path opacity="0.6" d="M294.194 172.616H293.199V300.565H294.194V172.616Z" fill="#E6E6E6"/>
<path opacity="0.6" d="M319.425 172.616H318.43V300.565H319.425V172.616Z" fill="#E6E6E6"/>
<path d="M369.017 165.411H337.695V324.789H369.017V165.411Z" fill="#4D4D4D"/>
<path opacity="0.69" d="M364.418 172.616H340.803V175.474H364.418V172.616Z" fill="#E6E6E6"/>
<path opacity="0.79" d="M364.418 179.2H340.803V182.057H364.418V179.2Z" fill="#E6E6E6"/>
<path opacity="0.19" d="M364.418 185.784H340.803V188.641H364.418V185.784Z" fill="#E6E6E6"/>
<path opacity="0.88" d="M364.418 192.368H340.803V195.225H364.418V192.368Z" fill="#E6E6E6"/>
<path opacity="0.5" d="M364.418 198.951H340.803V201.809H364.418V198.951Z" fill="#E6E6E6"/>
<path opacity="0.25" d="M364.418 205.535H340.803V208.392H364.418V205.535Z" fill="#E6E6E6"/>
<path opacity="0.91" d="M364.418 212.119H340.803V214.976H364.418V212.119Z" fill="#E6E6E6"/>
<path opacity="0.02" d="M364.418 218.703H340.803V221.56H364.418V218.703Z" fill="#E6E6E6"/>
<path opacity="0.53" d="M364.418 225.287H340.803V228.144H364.418V225.287Z" fill="#E6E6E6"/>
<path opacity="0.65" d="M364.418 231.87H340.803V234.727H364.418V231.87Z" fill="#E6E6E6"/>
<path d="M364.418 238.454H340.803V241.311H364.418V238.454Z" fill="#E6E6E6"/>
<path opacity="0.8" d="M364.418 245.038H340.803V247.895H364.418V245.038Z" fill="#E6E6E6"/>
<path opacity="0.82" d="M364.418 251.622H340.803V254.479H364.418V251.622Z" fill="#E6E6E6"/>
<path opacity="0.75" d="M364.418 258.206H340.803V261.063H364.418V258.206Z" fill="#E6E6E6"/>
<path opacity="0.31" d="M364.418 264.789H340.803V267.646H364.418V264.789Z" fill="#E6E6E6"/>
<path opacity="0.22" d="M364.418 271.373H340.803V274.23H364.418V271.373Z" fill="#E6E6E6"/>
<path opacity="0.43" d="M364.418 277.957H340.803V280.814H364.418V277.957Z" fill="#E6E6E6"/>
<path opacity="0.68" d="M364.418 284.541H340.803V287.398H364.418V284.541Z" fill="#E6E6E6"/>
<path opacity="0.38" d="M364.418 291.125H340.803V293.982H364.418V291.125Z" fill="#E6E6E6"/>
<path opacity="0.84" d="M364.418 297.708H340.803V300.565H364.418V297.708Z" fill="#E6E6E6"/>
<path d="M285.99 156.964V165.411H326.634V156.964H285.99ZM295.064 162.679H290.838V159.821H295.064V162.679ZM301.651 162.679H297.549V159.821H301.651V162.679ZM308.363 162.679H304.261V159.821H308.363V162.679ZM315.074 162.679H310.849V159.821H315.074V162.679ZM321.786 162.679H317.56V159.821H321.786V162.679Z" fill="#333333"/>
<path d="M334.091 159.822H332.972V162.679H334.091V159.822Z" fill="#333333"/>
<path d="M326.634 156.964V165.411H345.774V156.964H326.634ZM334.091 162.679H329.989V159.821H334.091V162.679ZM342.916 162.679H338.814V159.821H342.916V162.679Z" fill="#4D4D4D"/>
<path d="M342.791 159.822H341.673V162.679H342.791V159.822Z" fill="#333333"/>
<path d="M346.023 335.596H261.505L346.023 273.236V335.596Z" fill="#333333"/>
<path d="M219.992 131.623H213.156V157.586H219.992V131.623Z" fill="#4D4D4D"/>
<path d="M213.28 131.623H206.32V157.586H213.28V131.623Z" fill="#333333"/>
<path d="M227.076 131.623H220.116V157.586H227.076V131.623Z" fill="#666666"/>
<path d="M247.212 175.349H227.822V323.422H247.212V175.349Z" fill="#666666"/>
<path d="M205.077 175.349H188.173V323.422H205.077V175.349Z" fill="#333333"/>
<path d="M227.822 175.349H204.953V323.422H227.822V175.349Z" fill="#4D4D4D"/>
<path opacity="0.6" d="M193.021 179.697H190.535V321.435H193.021V179.697Z" fill="#E6E6E6"/>
<path opacity="0.6" d="M197.868 179.697H195.382V321.435H197.868V179.697Z" fill="#E6E6E6"/>
<path opacity="0.6" d="M202.715 179.697H200.229V321.435H202.715V179.697Z" fill="#E6E6E6"/>
<path d="M231.675 179.697H229.189V321.435H231.675V179.697Z" fill="#E6E6E6"/>
<path d="M236.522 179.697H234.037V321.435H236.522V179.697Z" fill="#E6E6E6"/>
<path d="M245.969 179.697H243.483V321.435H245.969V179.697Z" fill="#E6E6E6"/>
<path d="M241.37 179.697H238.884V321.435H241.37V179.697Z" fill="#E6E6E6"/>
<path opacity="0.8" d="M207.811 321.435H224.963V179.697H207.811V321.435ZM210.546 182.181H222.229V318.95H210.546V182.181Z" fill="#E6E6E6"/>
<path opacity="0.8" d="M212.783 316.59H220.116V184.417H212.783V316.59ZM215.269 187.523H216.139H216.636H217.63V313.484H216.636H216.139H215.269V187.523Z" fill="#E6E6E6"/>
<path opacity="0.8" d="M216.636 187.523H216.139V313.484H216.636V187.523Z" fill="#E6E6E6"/>
<path d="M225.212 149.387H208.06V175.349H225.212V149.387Z" fill="#4D4D4D"/>
<path d="M225.212 149.387H208.06V175.349H225.212V149.387Z" fill="#4D4D4D"/>
<path d="M242.364 149.387H225.212V175.349H242.364V149.387Z" fill="#666666"/>
<path d="M208.06 149.387H190.908V175.349H208.06V149.387Z" fill="#333333"/>
<path d="M226.952 131.623H206.32L213.156 136.343H220.116L226.952 131.623Z" fill="#808080"/>
<path d="M595.724 122.058H585.781V151.25H595.724V122.058Z" fill="#4D4D4D"/>
<path d="M585.656 122.058H575.713V151.25H585.656V122.058Z" fill="#333333"/>
<path d="M605.667 122.058H595.724V151.25H605.667V122.058Z" fill="#666666"/>
<path d="M635 171.374H606.91V338.204H635V171.374Z" fill="#666666"/>
<path d="M573.849 171.374H549.488V338.204H573.849V171.374Z" fill="#333333"/>
<path d="M606.91 171.374H573.849V338.204H606.91V171.374Z" fill="#4D4D4D"/>
<path opacity="0.4" d="M556.448 176.343H552.844V335.969H556.448V176.343Z" fill="#E6E6E6"/>
<path opacity="0.4" d="M563.533 176.343H559.928V335.969H563.533V176.343Z" fill="#E6E6E6"/>
<path opacity="0.4" d="M570.617 176.343H567.013V335.969H570.617V176.343Z" fill="#E6E6E6"/>
<path d="M612.503 176.343H608.899V335.969H612.503V176.343Z" fill="#E6E6E6"/>
<path d="M619.588 176.343H615.983V335.969H619.588V176.343Z" fill="#E6E6E6"/>
<path d="M633.136 176.343H629.531V335.969H633.136V176.343Z" fill="#E6E6E6"/>
<path d="M626.548 176.343H622.944V335.969H626.548V176.343Z" fill="#E6E6E6"/>
<path d="M578.075 335.969H602.933V176.343H578.075V335.969ZM581.928 179.076H598.831V333.236H581.928V179.076Z" fill="#E6E6E6"/>
<path d="M585.035 330.627H595.724V181.685H585.035V330.627ZM588.764 185.163H590.131H590.752H592.12V327.149H590.752H590.131H588.764V185.163Z" fill="#E6E6E6"/>
<path d="M590.752 185.163H590.131V327.149H590.752V185.163Z" fill="#E6E6E6"/>
<path d="M603.181 142.182H578.323V171.374H603.181V142.182Z" fill="#4D4D4D"/>
<path d="M603.181 142.182H578.323V171.374H603.181V142.182Z" fill="#4D4D4D"/>
<path d="M628.04 142.182H603.181V171.374H628.04V142.182Z" fill="#666666"/>
<path d="M578.448 142.182H553.589V171.374H578.448V142.182Z" fill="#333333"/>
<path d="M605.792 122.058H575.713L585.781 127.399H595.724L605.792 122.058Z" fill="#808080"/>
<path d="M524.008 194.479H456.021V217.088H524.008V194.479Z" fill="#E6E6E6"/>
<path d="M482.743 194.479H456.021V217.088H482.743V194.479Z" fill="#B3B3B3"/>
<path d="M482.743 217.212H429.92V327.025H482.743V217.212Z" fill="#333333"/>
<path d="M565.273 217.212H482.743V327.025H565.273V217.212Z" fill="#4D4D4D"/>
<path d="M476.28 206.032H435.637V217.212H476.28V206.032Z" fill="#333333"/>
<path d="M552.968 206.032H494.924V217.212H552.968V206.032Z" fill="#4D4D4D"/>
<path d="M505.986 185.908H482.743V194.479H505.986V185.908Z" fill="#E6E6E6"/>
<path d="M494.302 177.213H482.743V185.784H494.302V177.213Z" fill="#4D4D4D"/>
<path d="M482.619 177.213H471.06V185.784H482.619V177.213Z" fill="#333333"/>
<path d="M482.743 185.908H464.97V194.479H482.743V185.908Z" fill="#B3B3B3"/>
<path d="M481.998 177.213L482.743 157.337L483.365 177.213H481.998Z" fill="#333333"/>
<path opacity="0.12" d="M446.575 221.684H442.224V226.032H446.575V221.684Z" fill="white"/>
<path opacity="0.25" d="M452.541 221.684H448.19V226.032H452.541V221.684Z" fill="white"/>
<path opacity="0.36" d="M458.506 221.684H454.156V226.032H458.506V221.684Z" fill="white"/>
<path opacity="0.12" d="M464.472 221.684H460.122V226.032H464.472V221.684Z" fill="white"/>
<path opacity="0.14" d="M470.438 221.684H466.088V226.032H470.438V221.684Z" fill="white"/>
<path opacity="0.28" d="M446.575 227.399H442.224V231.746H446.575V227.399Z" fill="white"/>
<path opacity="0.4" d="M452.541 227.399H448.19V231.746H452.541V227.399Z" fill="white"/>
<path opacity="0.16" d="M458.506 227.399H454.156V231.746H458.506V227.399Z" fill="white"/>
<path opacity="0.17" d="M470.438 227.399H466.088V231.746H470.438V227.399Z" fill="white"/>
<path opacity="0.27" d="M446.575 233.113H442.224V237.461H446.575V233.113Z" fill="white"/>
<path opacity="0.45" d="M452.541 233.113H448.19V237.461H452.541V233.113Z" fill="white"/>
<path opacity="0.45" d="M458.506 233.113H454.156V237.461H458.506V233.113Z" fill="white"/>
<path opacity="0.48" d="M464.472 233.113H460.122V237.461H464.472V233.113Z" fill="white"/>
<path opacity="0.25" d="M470.438 233.113H466.088V237.461H470.438V233.113Z" fill="white"/>
<path opacity="0.28" d="M446.575 238.827H442.224V243.175H446.575V238.827Z" fill="white"/>
<path opacity="0.13" d="M452.541 238.827H448.19V243.175H452.541V238.827Z" fill="white"/>
<path opacity="0.07" d="M458.506 238.827H454.156V243.175H458.506V238.827Z" fill="white"/>
<path opacity="0.39" d="M464.472 238.827H460.122V243.175H464.472V238.827Z" fill="white"/>
<path opacity="0.47" d="M470.438 238.827H466.088V243.175H470.438V238.827Z" fill="white"/>
<path opacity="0.28" d="M446.575 244.541H442.224V248.889H446.575V244.541Z" fill="white"/>
<path opacity="0.2" d="M452.541 244.541H448.19V248.889H452.541V244.541Z" fill="white"/>
<path opacity="0.04" d="M458.506 244.541H454.156V248.889H458.506V244.541Z" fill="white"/>
<path opacity="0.43" d="M464.472 244.541H460.122V248.889H464.472V244.541Z" fill="white"/>
<path opacity="0.48" d="M470.438 244.541H466.088V248.889H470.438V244.541Z" fill="white"/>
<path opacity="0.28" d="M446.575 250.255H442.224V254.603H446.575V250.255Z" fill="white"/>
<path opacity="0.19" d="M452.541 250.255H448.19V254.603H452.541V250.255Z" fill="white"/>
<path opacity="0.01" d="M458.506 250.255H454.156V254.603H458.506V250.255Z" fill="white"/>
<path opacity="0.27" d="M464.472 250.255H460.122V254.603H464.472V250.255Z" fill="white"/>
<path opacity="0.24" d="M470.438 250.255H466.088V254.603H470.438V250.255Z" fill="white"/>
<path opacity="0.07" d="M446.575 256.094H442.224V260.442H446.575V256.094Z" fill="white"/>
<path opacity="0.25" d="M452.541 256.094H448.19V260.442H452.541V256.094Z" fill="white"/>
<path opacity="0.26" d="M458.506 256.094H454.156V260.442H458.506V256.094Z" fill="white"/>
<path opacity="0.39" d="M464.472 256.094H460.122V260.442H464.472V256.094Z" fill="white"/>
<path opacity="0.22" d="M470.438 256.094H466.088V260.442H470.438V256.094Z" fill="white"/>
<path opacity="0.15" d="M446.575 261.808H442.224V266.156H446.575V261.808Z" fill="white"/>
<path opacity="0.23" d="M452.541 261.808H448.19V266.156H452.541V261.808Z" fill="white"/>
<path opacity="0.05" d="M458.506 261.808H454.156V266.156H458.506V261.808Z" fill="white"/>
<path opacity="0.2" d="M464.472 261.808H460.122V266.156H464.472V261.808Z" fill="white"/>
<path opacity="0.31" d="M470.438 261.808H466.088V266.156H470.438V261.808Z" fill="white"/>
<path opacity="0.15" d="M446.575 267.522H442.224V271.87H446.575V267.522Z" fill="white"/>
<path opacity="0.33" d="M452.541 267.522H448.19V271.87H452.541V267.522Z" fill="white"/>
<path opacity="0.46" d="M458.506 267.522H454.156V271.87H458.506V267.522Z" fill="white"/>
<path opacity="0.25" d="M464.472 267.522H460.122V271.87H464.472V267.522Z" fill="white"/>
<path opacity="0.43" d="M470.438 267.522H466.088V271.87H470.438V267.522Z" fill="white"/>
<path opacity="0.4" d="M446.575 273.237H442.224V277.584H446.575V273.237Z" fill="white"/>
<path opacity="0.39" d="M452.541 273.237H448.19V277.584H452.541V273.237Z" fill="white"/>
<path opacity="0.01" d="M458.506 273.237H454.156V277.584H458.506V273.237Z" fill="white"/>
<path opacity="0.12" d="M464.472 273.237H460.122V277.584H464.472V273.237Z" fill="white"/>
<path opacity="0.07" d="M470.438 273.237H466.088V277.584H470.438V273.237Z" fill="white"/>
<path opacity="0.07" d="M446.575 278.951H442.224V283.299H446.575V278.951Z" fill="white"/>
<path opacity="0.02" d="M452.541 278.951H448.19V283.299H452.541V278.951Z" fill="white"/>
<path opacity="0.12" d="M458.506 278.951H454.156V283.299H458.506V278.951Z" fill="white"/>
<path opacity="0.23" d="M464.472 278.951H460.122V283.299H464.472V278.951Z" fill="white"/>
<path opacity="0.26" d="M470.438 278.951H466.088V283.299H470.438V278.951Z" fill="white"/>
<path opacity="0.27" d="M446.575 284.665H442.224V289.013H446.575V284.665Z" fill="white"/>
<path opacity="0.38" d="M452.541 284.665H448.19V289.013H452.541V284.665Z" fill="white"/>
<path opacity="0.05" d="M458.506 284.665H454.156V289.013H458.506V284.665Z" fill="white"/>
<path opacity="0.45" d="M464.472 284.665H460.122V289.013H464.472V284.665Z" fill="white"/>
<path opacity="0.15" d="M470.438 284.665H466.088V289.013H470.438V284.665Z" fill="white"/>
<path opacity="0.06" d="M446.575 290.379H442.224V294.727H446.575V290.379Z" fill="white"/>
<path opacity="0.47" d="M452.541 290.379H448.19V294.727H452.541V290.379Z" fill="white"/>
<path opacity="0.15" d="M458.506 290.379H454.156V294.727H458.506V290.379Z" fill="white"/>
<path opacity="0.44" d="M464.472 290.379H460.122V294.727H464.472V290.379Z" fill="white"/>
<path opacity="0.14" d="M470.438 290.379H466.088V294.727H470.438V290.379Z" fill="white"/>
<path opacity="0.15" d="M446.575 296.094H442.224V300.441H446.575V296.094Z" fill="white"/>
<path opacity="0.43" d="M452.541 296.094H448.19V300.441H452.541V296.094Z" fill="white"/>
<path opacity="0.07" d="M458.506 296.094H454.156V300.441H458.506V296.094Z" fill="white"/>
<path opacity="0.47" d="M464.472 296.094H460.122V300.441H464.472V296.094Z" fill="white"/>
<path opacity="0.11" d="M470.438 296.094H466.088V300.441H470.438V296.094Z" fill="white"/>
<path opacity="0.07" d="M446.575 301.808H442.224V306.155H446.575V301.808Z" fill="white"/>
<path opacity="0.34" d="M452.541 301.808H448.19V306.155H452.541V301.808Z" fill="white"/>
<path opacity="0.5" d="M458.506 301.808H454.156V306.155H458.506V301.808Z" fill="white"/>
<path opacity="0.36" d="M464.472 301.808H460.122V306.155H464.472V301.808Z" fill="white"/>
<path opacity="0.34" d="M470.438 301.808H466.088V306.155H470.438V301.808Z" fill="white"/>
<path opacity="0.47" d="M446.575 307.522H442.224V311.87H446.575V307.522Z" fill="white"/>
<path opacity="0.41" d="M452.541 307.522H448.19V311.87H452.541V307.522Z" fill="white"/>
<path opacity="0.3" d="M458.506 307.522H454.156V311.87H458.506V307.522Z" fill="white"/>
<path opacity="0.33" d="M464.472 307.522H460.122V311.87H464.472V307.522Z" fill="white"/>
<path opacity="0.12" d="M470.438 307.522H466.088V311.87H470.438V307.522Z" fill="white"/>
<path opacity="0.3" d="M497.161 221.684H492.811V226.032H497.161V221.684Z" fill="white"/>
<path opacity="0.72" d="M502.878 221.684H498.528V226.032H502.878V221.684Z" fill="white"/>
<path opacity="0.7" d="M508.72 221.684H504.37V226.032H508.72V221.684Z" fill="white"/>
<path opacity="0.52" d="M514.562 221.684H510.212V226.032H514.562V221.684Z" fill="white"/>
<path opacity="0.2" d="M520.404 221.684H516.053V226.032H520.404V221.684Z" fill="white"/>
<path opacity="0.32" d="M526.121 221.684H521.771V226.032H526.121V221.684Z" fill="white"/>
<path opacity="0.13" d="M531.963 221.684H527.612V226.032H531.963V221.684Z" fill="white"/>
<path opacity="0.38" d="M537.804 221.684H533.454V226.032H537.804V221.684Z" fill="white"/>
<path opacity="0.61" d="M543.522 221.684H539.172V226.032H543.522V221.684Z" fill="white"/>
<path d="M549.363 221.684H545.013V226.032H549.363V221.684Z" fill="white"/>
<path opacity="0.91" d="M555.205 221.684H550.855V226.032H555.205V221.684Z" fill="white"/>
<path opacity="0.66" d="M497.161 227.399H492.811V231.746H497.161V227.399Z" fill="white"/>
<path opacity="0.31" d="M502.878 227.399H498.528V231.746H502.878V227.399Z" fill="white"/>
<path opacity="0.95" d="M508.72 227.399H504.37V231.746H508.72V227.399Z" fill="white"/>
<path opacity="0.7" d="M514.562 227.399H510.212V231.746H514.562V227.399Z" fill="white"/>
<path opacity="0.12" d="M520.404 227.399H516.053V231.746H520.404V227.399Z" fill="white"/>
<path opacity="0.24" d="M526.121 227.399H521.771V231.746H526.121V227.399Z" fill="white"/>
<path opacity="0.66" d="M531.963 227.399H527.612V231.746H531.963V227.399Z" fill="white"/>
<path opacity="0.71" d="M537.804 227.399H533.454V231.746H537.804V227.399Z" fill="white"/>
<path opacity="0.42" d="M543.522 227.399H539.172V231.746H543.522V227.399Z" fill="white"/>
<path opacity="0.09" d="M549.363 227.399H545.013V231.746H549.363V227.399Z" fill="white"/>
<path opacity="0.32" d="M555.205 227.399H550.855V231.746H555.205V227.399Z" fill="white"/>
<path opacity="0.65" d="M497.161 233.113H492.811V237.461H497.161V233.113Z" fill="white"/>
<path d="M502.878 233.113H498.528V237.461H502.878V233.113Z" fill="white"/>
<path d="M508.72 233.113H504.37V237.461H508.72V233.113Z" fill="white"/>
<path opacity="0.71" d="M514.562 233.113H510.212V237.461H514.562V233.113Z" fill="white"/>
<path opacity="0.2" d="M520.404 233.113H516.053V237.461H520.404V233.113Z" fill="white"/>
<path opacity="0.19" d="M526.121 233.113H521.771V237.461H526.121V233.113Z" fill="white"/>
<path opacity="0.62" d="M531.963 233.113H527.612V237.461H531.963V233.113Z" fill="white"/>
<path opacity="0.93" d="M537.804 233.113H533.454V237.461H537.804V233.113Z" fill="white"/>
<path opacity="0.56" d="M543.522 233.113H539.172V237.461H543.522V233.113Z" fill="white"/>
<path opacity="0.57" d="M549.363 233.113H545.013V237.461H549.363V233.113Z" fill="white"/>
<path opacity="0.52" d="M555.205 233.113H550.855V237.461H555.205V233.113Z" fill="white"/>
<path opacity="0.74" d="M497.161 238.827H492.811V243.175H497.161V238.827Z" fill="white"/>
<path opacity="0.56" d="M502.878 238.827H498.528V243.175H502.878V238.827Z" fill="white"/>
<path opacity="0.78" d="M508.72 238.827H504.37V243.175H508.72V238.827Z" fill="white"/>
<path opacity="0.41" d="M514.562 238.827H510.212V243.175H514.562V238.827Z" fill="white"/>
<path opacity="0.14" d="M520.404 238.827H516.053V243.175H520.404V238.827Z" fill="white"/>
<path opacity="0.28" d="M526.121 238.827H521.771V243.175H526.121V238.827Z" fill="white"/>
<path opacity="0.36" d="M531.963 238.827H527.612V243.175H531.963V238.827Z" fill="white"/>
<path opacity="0.14" d="M537.804 238.827H533.454V243.175H537.804V238.827Z" fill="white"/>
<path opacity="0.5" d="M543.522 238.827H539.172V243.175H543.522V238.827Z" fill="white"/>
<path opacity="0.98" d="M549.363 238.827H545.013V243.175H549.363V238.827Z" fill="white"/>
<path opacity="0.59" d="M555.205 238.827H550.855V243.175H555.205V238.827Z" fill="white"/>
<path opacity="0.07" d="M497.161 244.541H492.811V248.889H497.161V244.541Z" fill="white"/>
<path opacity="0.1" d="M502.878 244.541H498.528V248.889H502.878V244.541Z" fill="white"/>
<path opacity="0.88" d="M508.72 244.541H504.37V248.889H508.72V244.541Z" fill="white"/>
<path opacity="0.68" d="M514.562 244.541H510.212V248.889H514.562V244.541Z" fill="white"/>
<path opacity="0.81" d="M520.404 244.541H516.053V248.889H520.404V244.541Z" fill="white"/>
<path opacity="0.62" d="M526.121 244.541H521.771V248.889H526.121V244.541Z" fill="white"/>
<path opacity="0.97" d="M531.963 244.541H527.612V248.889H531.963V244.541Z" fill="white"/>
<path opacity="0.81" d="M537.804 244.541H533.454V248.889H537.804V244.541Z" fill="white"/>
<path opacity="0.79" d="M543.522 244.541H539.172V248.889H543.522V244.541Z" fill="white"/>
<path opacity="0.03" d="M549.363 244.541H545.013V248.889H549.363V244.541Z" fill="white"/>
<path opacity="0.95" d="M555.205 244.541H550.855V248.889H555.205V244.541Z" fill="white"/>
<path opacity="0.62" d="M497.161 250.255H492.811V254.603H497.161V250.255Z" fill="white"/>
<path opacity="0.22" d="M502.878 250.255H498.528V254.603H502.878V250.255Z" fill="white"/>
<path opacity="0.42" d="M508.72 250.255H504.37V254.603H508.72V250.255Z" fill="white"/>
<path opacity="0.56" d="M514.562 250.255H510.212V254.603H514.562V250.255Z" fill="white"/>
<path opacity="0.03" d="M520.404 250.255H516.053V254.603H520.404V250.255Z" fill="white"/>
<path opacity="0.64" d="M526.121 250.255H521.771V254.603H526.121V250.255Z" fill="white"/>
<path opacity="0.82" d="M531.963 250.255H527.612V254.603H531.963V250.255Z" fill="white"/>
<path opacity="0.52" d="M537.804 250.255H533.454V254.603H537.804V250.255Z" fill="white"/>
<path opacity="0.46" d="M543.522 250.255H539.172V254.603H543.522V250.255Z" fill="white"/>
<path opacity="0.27" d="M549.363 250.255H545.013V254.603H549.363V250.255Z" fill="white"/>
<path opacity="0.46" d="M555.205 250.255H550.855V254.603H555.205V250.255Z" fill="white"/>
<path opacity="0.66" d="M497.161 256.094H492.811V260.442H497.161V256.094Z" fill="white"/>
<path opacity="0.7" d="M502.878 256.094H498.528V260.442H502.878V256.094Z" fill="white"/>
<path opacity="0.94" d="M508.72 256.094H504.37V260.442H508.72V256.094Z" fill="white"/>
<path opacity="0.5" d="M514.562 256.094H510.212V260.442H514.562V256.094Z" fill="white"/>
<path opacity="0.12" d="M520.404 256.094H516.053V260.442H520.404V256.094Z" fill="white"/>
<path opacity="0.36" d="M526.121 256.094H521.771V260.442H526.121V256.094Z" fill="white"/>
<path opacity="0.51" d="M531.963 256.094H527.612V260.442H531.963V256.094Z" fill="white"/>
<path opacity="0.37" d="M537.804 256.094H533.454V260.442H537.804V256.094Z" fill="white"/>
<path opacity="0.66" d="M543.522 256.094H539.172V260.442H543.522V256.094Z" fill="white"/>
<path opacity="0.42" d="M549.363 256.094H545.013V260.442H549.363V256.094Z" fill="white"/>
<path opacity="0.5" d="M555.205 256.094H550.855V260.442H555.205V256.094Z" fill="white"/>
<path opacity="0.52" d="M497.161 261.808H492.811V266.156H497.161V261.808Z" fill="white"/>
<path opacity="0.61" d="M502.878 261.808H498.528V266.156H502.878V261.808Z" fill="white"/>
<path opacity="0.84" d="M508.72 261.808H504.37V266.156H508.72V261.808Z" fill="white"/>
<path opacity="0.89" d="M514.562 261.808H510.212V266.156H514.562V261.808Z" fill="white"/>
<path opacity="0.33" d="M520.404 261.808H516.053V266.156H520.404V261.808Z" fill="white"/>
<path opacity="0.25" d="M526.121 261.808H521.771V266.156H526.121V261.808Z" fill="white"/>
<path opacity="0.95" d="M531.963 261.808H527.612V266.156H531.963V261.808Z" fill="white"/>
<path opacity="0.09" d="M537.804 261.808H533.454V266.156H537.804V261.808Z" fill="white"/>
<path opacity="0.44" d="M543.522 261.808H539.172V266.156H543.522V261.808Z" fill="white"/>
<path opacity="0.51" d="M549.363 261.808H545.013V266.156H549.363V261.808Z" fill="white"/>
<path opacity="0.97" d="M555.205 261.808H550.855V266.156H555.205V261.808Z" fill="white"/>
<path opacity="0.26" d="M497.161 267.522H492.811V271.87H497.161V267.522Z" fill="white"/>
<path opacity="0.92" d="M502.878 267.522H498.528V271.87H502.878V267.522Z" fill="white"/>
<path opacity="0.33" d="M508.72 267.522H504.37V271.87H508.72V267.522Z" fill="white"/>
<path opacity="0.23" d="M514.562 267.522H510.212V271.87H514.562V267.522Z" fill="white"/>
<path opacity="0.42" d="M520.404 267.522H516.053V271.87H520.404V267.522Z" fill="white"/>
<path opacity="0.57" d="M526.121 267.522H521.771V271.87H526.121V267.522Z" fill="white"/>
<path opacity="0.73" d="M531.963 267.522H527.612V271.87H531.963V267.522Z" fill="white"/>
<path opacity="0.87" d="M537.804 267.522H533.454V271.87H537.804V267.522Z" fill="white"/>
<path opacity="0.22" d="M543.522 267.522H539.172V271.87H543.522V267.522Z" fill="white"/>
<path opacity="0.89" d="M549.363 267.522H545.013V271.87H549.363V267.522Z" fill="white"/>
<path opacity="0.73" d="M555.205 267.522H550.855V271.87H555.205V267.522Z" fill="white"/>
<path opacity="0.35" d="M497.161 273.237H492.811V277.584H497.161V273.237Z" fill="white"/>
<path opacity="0.81" d="M502.878 273.237H498.528V277.584H502.878V273.237Z" fill="white"/>
<path opacity="0.56" d="M508.72 273.237H504.37V277.584H508.72V273.237Z" fill="white"/>
<path opacity="0.81" d="M514.562 273.237H510.212V277.584H514.562V273.237Z" fill="white"/>
<path opacity="0.87" d="M520.404 273.237H516.053V277.584H520.404V273.237Z" fill="white"/>
<path opacity="0.39" d="M526.121 273.237H521.771V277.584H526.121V273.237Z" fill="white"/>
<path opacity="0.31" d="M531.963 273.237H527.612V277.584H531.963V273.237Z" fill="white"/>
<path opacity="0.98" d="M537.804 273.237H533.454V277.584H537.804V273.237Z" fill="white"/>
<path opacity="0.17" d="M543.522 273.237H539.172V277.584H543.522V273.237Z" fill="white"/>
<path opacity="0.06" d="M549.363 273.237H545.013V277.584H549.363V273.237Z" fill="white"/>
<path opacity="0.57" d="M555.205 273.237H550.855V277.584H555.205V273.237Z" fill="white"/>
<path opacity="0.67" d="M497.161 278.951H492.811V283.299H497.161V278.951Z" fill="white"/>
<path opacity="0.83" d="M502.878 278.951H498.528V283.299H502.878V278.951Z" fill="white"/>
<path opacity="0.99" d="M508.72 278.951H504.37V283.299H508.72V278.951Z" fill="white"/>
<path opacity="0.62" d="M514.562 278.951H510.212V283.299H514.562V278.951Z" fill="white"/>
<path opacity="0.87" d="M520.404 278.951H516.053V283.299H520.404V278.951Z" fill="white"/>
<path opacity="0.14" d="M526.121 278.951H521.771V283.299H526.121V278.951Z" fill="white"/>
<path opacity="0.12" d="M531.963 278.951H527.612V283.299H531.963V278.951Z" fill="white"/>
<path opacity="0.11" d="M537.804 278.951H533.454V283.299H537.804V278.951Z" fill="white"/>
<path opacity="0.39" d="M543.522 278.951H539.172V283.299H543.522V278.951Z" fill="white"/>
<path opacity="0.58" d="M549.363 278.951H545.013V283.299H549.363V278.951Z" fill="white"/>
<path opacity="0.54" d="M555.205 278.951H550.855V283.299H555.205V278.951Z" fill="white"/>
<path opacity="0.99" d="M497.161 284.665H492.811V289.013H497.161V284.665Z" fill="white"/>
<path opacity="0.28" d="M502.878 284.665H498.528V289.013H502.878V284.665Z" fill="white"/>
<path opacity="0.78" d="M508.72 284.665H504.37V289.013H508.72V284.665Z" fill="white"/>
<path opacity="0.65" d="M514.562 284.665H510.212V289.013H514.562V284.665Z" fill="white"/>
<path opacity="0.32" d="M520.404 284.665H516.053V289.013H520.404V284.665Z" fill="white"/>
<path opacity="0.55" d="M526.121 284.665H521.771V289.013H526.121V284.665Z" fill="white"/>
<path opacity="0.4" d="M531.963 284.665H527.612V289.013H531.963V284.665Z" fill="white"/>
<path opacity="0.22" d="M537.804 284.665H533.454V289.013H537.804V284.665Z" fill="white"/>
<path opacity="0.87" d="M543.522 284.665H539.172V289.013H543.522V284.665Z" fill="white"/>
<path opacity="0.02" d="M549.363 284.665H545.013V289.013H549.363V284.665Z" fill="white"/>
<path opacity="0.39" d="M555.205 284.665H550.855V289.013H555.205V284.665Z" fill="white"/>
<path opacity="0.89" d="M497.161 290.379H492.811V294.727H497.161V290.379Z" fill="white"/>
<path opacity="0.97" d="M502.878 290.379H498.528V294.727H502.878V290.379Z" fill="white"/>
<path opacity="0.79" d="M508.72 290.379H504.37V294.727H508.72V290.379Z" fill="white"/>
<path opacity="0.41" d="M514.562 290.379H510.212V294.727H514.562V290.379Z" fill="white"/>
<path opacity="0.13" d="M520.404 290.379H516.053V294.727H520.404V290.379Z" fill="white"/>
<path opacity="0.9" d="M526.121 290.379H521.771V294.727H526.121V290.379Z" fill="white"/>
<path opacity="0.98" d="M531.963 290.379H527.612V294.727H531.963V290.379Z" fill="white"/>
<path opacity="0.67" d="M537.804 290.379H533.454V294.727H537.804V290.379Z" fill="white"/>
<path opacity="0.65" d="M543.522 290.379H539.172V294.727H543.522V290.379Z" fill="white"/>
<path opacity="0.89" d="M549.363 290.379H545.013V294.727H549.363V290.379Z" fill="white"/>
<path opacity="0.98" d="M555.205 290.379H550.855V294.727H555.205V290.379Z" fill="white"/>
<path opacity="0.29" d="M497.161 296.094H492.811V300.441H497.161V296.094Z" fill="white"/>
<path opacity="0.74" d="M502.878 296.094H498.528V300.441H502.878V296.094Z" fill="white"/>
<path opacity="0.64" d="M508.72 296.094H504.37V300.441H508.72V296.094Z" fill="white"/>
<path opacity="0.65" d="M514.562 296.094H510.212V300.441H514.562V296.094Z" fill="white"/>
<path opacity="0.07" d="M520.404 296.094H516.053V300.441H520.404V296.094Z" fill="white"/>
<path opacity="0.16" d="M526.121 296.094H521.771V300.441H526.121V296.094Z" fill="white"/>
<path opacity="0.84" d="M531.963 296.094H527.612V300.441H531.963V296.094Z" fill="white"/>
<path opacity="0.88" d="M537.804 296.094H533.454V300.441H537.804V296.094Z" fill="white"/>
<path opacity="0.57" d="M543.522 296.094H539.172V300.441H543.522V296.094Z" fill="white"/>
<path opacity="0.31" d="M549.363 296.094H545.013V300.441H549.363V296.094Z" fill="white"/>
<path opacity="0.03" d="M555.205 296.094H550.855V300.441H555.205V296.094Z" fill="white"/>
<path opacity="0.3" d="M497.161 301.808H492.811V306.155H497.161V301.808Z" fill="white"/>
<path opacity="0.59" d="M502.878 301.808H498.528V306.155H502.878V301.808Z" fill="white"/>
<path opacity="0.93" d="M508.72 301.808H504.37V306.155H508.72V301.808Z" fill="white"/>
<path opacity="0.06" d="M514.562 301.808H510.212V306.155H514.562V301.808Z" fill="white"/>
<path opacity="0.74" d="M520.404 301.808H516.053V306.155H520.404V301.808Z" fill="white"/>
<path opacity="0.22" d="M526.121 301.808H521.771V306.155H526.121V301.808Z" fill="white"/>
<path opacity="0.51" d="M531.963 301.808H527.612V306.155H531.963V301.808Z" fill="white"/>
<path opacity="0.7" d="M537.804 301.808H533.454V306.155H537.804V301.808Z" fill="white"/>
<path opacity="0.47" d="M543.522 301.808H539.172V306.155H543.522V301.808Z" fill="white"/>
<path opacity="0.08" d="M549.363 301.808H545.013V306.155H549.363V301.808Z" fill="white"/>
<path opacity="0.93" d="M555.205 301.808H550.855V306.155H555.205V301.808Z" fill="white"/>
<path opacity="0.81" d="M497.161 307.522H492.811V311.87H497.161V307.522Z" fill="white"/>
<path opacity="0.9" d="M502.878 307.522H498.528V311.87H502.878V307.522Z" fill="white"/>
<path opacity="0.55" d="M508.72 307.522H504.37V311.87H508.72V307.522Z" fill="white"/>
<path opacity="0.14" d="M514.562 307.522H510.212V311.87H514.562V307.522Z" fill="white"/>
<path opacity="0.66" d="M520.404 307.522H516.053V311.87H520.404V307.522Z" fill="white"/>
<path opacity="0.92" d="M526.121 307.522H521.771V311.87H526.121V307.522Z" fill="white"/>
<path opacity="0.4" d="M531.963 307.522H527.612V311.87H531.963V307.522Z" fill="white"/>
<path opacity="0.6" d="M537.804 307.522H533.454V311.87H537.804V307.522Z" fill="white"/>
<path opacity="0.99" d="M543.522 307.522H539.172V311.87H543.522V307.522Z" fill="white"/>
<path opacity="0.68" d="M549.363 307.522H545.013V311.87H549.363V307.522Z" fill="white"/>
<path opacity="0.01" d="M555.205 307.522H550.855V311.87H555.205V307.522Z" fill="white"/>
<path d="M423.705 193.734H382.689V322.18H423.705V193.734Z" fill="#333333"/>
<path d="M401.333 187.274H382.689V194.479H401.333V187.274Z" fill="#333333"/>
<path d="M393.502 183.051H382.689V187.275H393.502V183.051Z" fill="#333333"/>
<path opacity="0.25" d="M406.429 202.802H399.717V209.51H406.429V202.802Z" fill="white"/>
<path opacity="0.15" d="M406.429 219.324H399.717V226.032H406.429V219.324Z" fill="white"/>
<path opacity="0.19" d="M406.429 252.243H399.717V258.951H406.429V252.243Z" fill="white"/>
<path opacity="0.17" d="M406.429 268.64H399.717V275.348H406.429V268.64Z" fill="white"/>
<path opacity="0.22" d="M406.429 285.037H399.717V291.745H406.429V285.037Z" fill="white"/>
<path d="M406.429 301.559H399.717V308.267H406.429V301.559Z" fill="white"/>
<path d="M393.254 265.286H354.848V276.591H393.254V265.286Z" fill="#333333"/>
<path d="M412.394 265.286H393.254V276.591H412.394V265.286Z" fill="#4D4D4D"/>
<path d="M354.848 265.286L366.78 259.572L393.254 265.286H354.848Z" fill="#333333"/>
<path d="M366.78 259.572L393.254 265.286H412.394L366.78 259.572Z" fill="#4D4D4D"/>
<path d="M402.203 273.236H346.023V324.664H402.203V273.236Z" fill="#333333"/>
<path d="M420.846 273.236H402.203V324.664H420.846V273.236Z" fill="#4D4D4D"/>
<path opacity="0.81" d="M416.496 276.839H406.429V280.565H416.496V276.839Z" fill="white"/>
<path opacity="0.76" d="M416.496 283.671H406.429V287.398H416.496V283.671Z" fill="white"/>
<path opacity="0.32" d="M416.496 290.503H406.429V294.23H416.496V290.503Z" fill="white"/>
<path opacity="0.49" d="M416.496 297.46H406.429V301.186H416.496V297.46Z" fill="white"/>
<path opacity="0.1" d="M365.04 276.839H354.972V280.565H365.04V276.839Z" fill="white"/>
<path opacity="0.04" d="M379.084 276.839H369.017V280.565H379.084V276.839Z" fill="white"/>
<path opacity="0.07" d="M393.254 276.839H383.186V280.565H393.254V276.839Z" fill="white"/>
<path opacity="0.06" d="M365.04 283.671H354.972V287.398H365.04V283.671Z" fill="white"/>
<path opacity="0.44" d="M379.084 283.671H369.017V287.398H379.084V283.671Z" fill="white"/>
<path opacity="0.24" d="M393.254 283.671H383.186V287.398H393.254V283.671Z" fill="white"/>
<path opacity="0.55" d="M365.04 290.503H354.972V294.23H365.04V290.503Z" fill="white"/>
<path opacity="0.02" d="M379.084 290.503H369.017V294.23H379.084V290.503Z" fill="white"/>
<path opacity="0.14" d="M393.254 290.503H383.186V294.23H393.254V290.503Z" fill="white"/>
<path opacity="0.43" d="M365.04 297.46H354.972V301.186H365.04V297.46Z" fill="white"/>
<path opacity="0.41" d="M379.084 297.46H369.017V301.186H379.084V297.46Z" fill="white"/>
<path opacity="0.46" d="M393.254 297.46H383.186V301.186H393.254V297.46Z" fill="white"/>
<path opacity="0.45" d="M365.04 304.292H354.972V308.019H365.04V304.292Z" fill="white"/>
<path opacity="0.33" d="M379.084 304.292H369.017V308.019H379.084V304.292Z" fill="white"/>
<path opacity="0.05" d="M393.254 304.292H383.186V308.019H393.254V304.292Z" fill="white"/>
<path d="M128.886 221.808H94.0847V329.012H128.886V221.808Z" fill="#333333"/>
<path d="M168.535 221.808H129.011V329.012H168.535V221.808Z" fill="#4D4D4D"/>
<path d="M128.886 230.877H94.0847V232.74H128.886V230.877Z" fill="#4D4D4D"/>
<path d="M168.535 230.877H129.011V232.74H168.535V230.877Z" fill="#333333"/>
<path opacity="0.47" d="M100.672 234.852H96.9435V238.578H100.672V234.852Z" fill="white"/>
<path opacity="0.26" d="M105.768 234.852H102.039V238.578H105.768V234.852Z" fill="white"/>
<path opacity="0.32" d="M110.864 234.852H107.135V238.578H110.864V234.852Z" fill="white"/>
<path opacity="0.25" d="M115.96 234.852H112.231V238.578H115.96V234.852Z" fill="white"/>
<path opacity="0.12" d="M126.152 234.852H122.423V238.578H126.152V234.852Z" fill="white"/>
<path opacity="0.32" d="M100.672 239.945H96.9435V243.671H100.672V239.945Z" fill="white"/>
<path opacity="0.22" d="M110.864 239.945H107.135V243.671H110.864V239.945Z" fill="white"/>
<path opacity="0.47" d="M115.96 239.945H112.231V243.671H115.96V239.945Z" fill="white"/>
<path opacity="0.22" d="M121.056 239.945H117.327V243.671H121.056V239.945Z" fill="white"/>
<path opacity="0.32" d="M126.152 239.945H122.423V243.671H126.152V239.945Z" fill="white"/>
<path opacity="0.37" d="M100.672 245.038H96.9435V248.765H100.672V245.038Z" fill="white"/>
<path opacity="0.34" d="M105.768 245.038H102.039V248.765H105.768V245.038Z" fill="white"/>
<path opacity="0.18" d="M110.864 245.038H107.135V248.765H110.864V245.038Z" fill="white"/>
<path opacity="0.28" d="M115.96 245.038H112.231V248.765H115.96V245.038Z" fill="white"/>
<path opacity="0.2" d="M126.152 245.038H122.423V248.765H126.152V245.038Z" fill="white"/>
<path opacity="0.18" d="M100.672 250.131H96.9435V253.858H100.672V250.131Z" fill="white"/>
<path opacity="0.33" d="M110.864 250.131H107.135V253.858H110.864V250.131Z" fill="white"/>
<path opacity="0.05" d="M115.96 250.131H112.231V253.858H115.96V250.131Z" fill="white"/>
<path opacity="0.08" d="M121.056 250.131H117.327V253.858H121.056V250.131Z" fill="white"/>
<path opacity="0.08" d="M115.96 255.224H112.231V258.951H115.96V255.224Z" fill="white"/>
<path opacity="0.02" d="M121.056 255.224H117.327V258.951H121.056V255.224Z" fill="white"/>
<path opacity="0.03" d="M100.672 260.317H96.9435V264.044H100.672V260.317Z" fill="white"/>
<path opacity="0.46" d="M105.768 260.317H102.039V264.044H105.768V260.317Z" fill="white"/>
<path opacity="0.05" d="M110.864 260.317H107.135V264.044H110.864V260.317Z" fill="white"/>
<path opacity="0.2" d="M115.96 260.317H112.231V264.044H115.96V260.317Z" fill="white"/>
<path opacity="0.23" d="M121.056 260.317H117.327V264.044H121.056V260.317Z" fill="white"/>
<path opacity="0.17" d="M100.672 265.41H96.9435V269.137H100.672V265.41Z" fill="white"/>
<path opacity="0.08" d="M105.768 265.41H102.039V269.137H105.768V265.41Z" fill="white"/>
<path opacity="0.14" d="M110.864 265.41H107.135V269.137H110.864V265.41Z" fill="white"/>
<path opacity="0.24" d="M121.056 265.41H117.327V269.137H121.056V265.41Z" fill="white"/>
<path opacity="0.28" d="M100.672 270.503H96.9435V274.23H100.672V270.503Z" fill="white"/>
<path opacity="0.3" d="M105.768 270.503H102.039V274.23H105.768V270.503Z" fill="white"/>
<path opacity="0.23" d="M110.864 270.503H107.135V274.23H110.864V270.503Z" fill="white"/>
<path opacity="0.02" d="M115.96 270.503H112.231V274.23H115.96V270.503Z" fill="white"/>
<path opacity="0.04" d="M121.056 270.503H117.327V274.23H121.056V270.503Z" fill="white"/>
<path opacity="0.3" d="M126.152 270.503H122.423V274.23H126.152V270.503Z" fill="white"/>
<path opacity="0.08" d="M105.768 275.472H102.039V279.199H105.768V275.472Z" fill="white"/>
<path opacity="0.4" d="M126.152 275.472H122.423V279.199H126.152V275.472Z" fill="white"/>
<path opacity="0.31" d="M100.672 280.565H96.9435V284.292H100.672V280.565Z" fill="white"/>
<path opacity="0.31" d="M105.768 280.565H102.039V284.292H105.768V280.565Z" fill="white"/>
<path opacity="0.12" d="M110.864 280.565H107.135V284.292H110.864V280.565Z" fill="white"/>
<path opacity="0.19" d="M121.056 280.565H117.327V284.292H121.056V280.565Z" fill="white"/>
<path opacity="0.43" d="M126.152 280.565H122.423V284.292H126.152V280.565Z" fill="white"/>
<path opacity="0.12" d="M100.672 285.659H96.9435V289.385H100.672V285.659Z" fill="white"/>
<path opacity="0.42" d="M115.96 285.659H112.231V289.385H115.96V285.659Z" fill="white"/>
<path opacity="0.31" d="M126.152 285.659H122.423V289.385H126.152V285.659Z" fill="white"/>
<path opacity="0.23" d="M100.672 290.752H96.9435V294.478H100.672V290.752Z" fill="white"/>
<path opacity="0.31" d="M115.96 290.752H112.231V294.478H115.96V290.752Z" fill="white"/>
<path opacity="0.33" d="M126.152 290.752H122.423V294.478H126.152V290.752Z" fill="white"/>
<path opacity="0.49" d="M100.672 295.845H96.9435V299.572H100.672V295.845Z" fill="white"/>
<path opacity="0.06" d="M105.768 295.845H102.039V299.572H105.768V295.845Z" fill="white"/>
<path opacity="0.17" d="M115.96 295.845H112.231V299.572H115.96V295.845Z" fill="white"/>
<path opacity="0.01" d="M121.056 295.845H117.327V299.572H121.056V295.845Z" fill="white"/>
<path opacity="0.48" d="M126.152 295.845H122.423V299.572H126.152V295.845Z" fill="white"/>
<path opacity="0.05" d="M100.672 300.938H96.9435V304.665H100.672V300.938Z" fill="white"/>
<path opacity="0.23" d="M105.768 300.938H102.039V304.665H105.768V300.938Z" fill="white"/>
<path opacity="0.28" d="M110.864 300.938H107.135V304.665H110.864V300.938Z" fill="white"/>
<path opacity="0.02" d="M115.96 300.938H112.231V304.665H115.96V300.938Z" fill="white"/>
<path opacity="0.17" d="M121.056 300.938H117.327V304.665H121.056V300.938Z" fill="white"/>
<path opacity="0.42" d="M126.152 300.938H122.423V304.665H126.152V300.938Z" fill="white"/>
<path opacity="0.13" d="M100.672 306.031H96.9435V309.758H100.672V306.031Z" fill="white"/>
<path opacity="0.11" d="M110.864 306.031H107.135V309.758H110.864V306.031Z" fill="white"/>
<path opacity="0.02" d="M115.96 306.031H112.231V309.758H115.96V306.031Z" fill="white"/>
<path opacity="0.3" d="M126.152 306.031H122.423V309.758H126.152V306.031Z" fill="white"/>
<path opacity="0.08" d="M121.056 234.852H117.327V238.578H121.056V234.852Z" fill="white"/>
<path opacity="0.1" d="M105.768 239.945H102.039V243.671H105.768V239.945Z" fill="white"/>
<path opacity="0.08" d="M121.056 245.038H117.327V248.765H121.056V245.038Z" fill="white"/>
<path opacity="0.1" d="M105.768 250.131H102.039V253.858H105.768V250.131Z" fill="white"/>
<path opacity="0.01" d="M126.152 250.131H122.423V253.858H126.152V250.131Z" fill="white"/>
<path opacity="0.17" d="M100.672 255.224H96.9435V258.951H100.672V255.224Z" fill="white"/>
<path opacity="0.01" d="M105.768 255.224H102.039V258.951H105.768V255.224Z" fill="white"/>
<path opacity="0.15" d="M110.864 255.224H107.135V258.951H110.864V255.224Z" fill="white"/>
<path opacity="0.12" d="M126.152 255.224H122.423V258.951H126.152V255.224Z" fill="white"/>
<path opacity="0.13" d="M115.96 265.41H112.231V269.137H115.96V265.41Z" fill="white"/>
<path opacity="0.07" d="M126.152 265.41H122.423V269.137H126.152V265.41Z" fill="white"/>
<path opacity="0.13" d="M100.672 275.472H96.9435V279.199H100.672V275.472Z" fill="white"/>
<path opacity="0.02" d="M110.864 275.472H107.135V279.199H110.864V275.472Z" fill="white"/>
<path opacity="0.02" d="M115.96 275.472H112.231V279.199H115.96V275.472Z" fill="white"/>
<path opacity="0.14" d="M121.056 275.472H117.327V279.199H121.056V275.472Z" fill="white"/>
<path opacity="0.09" d="M110.864 285.659H107.135V289.385H110.864V285.659Z" fill="white"/>
<path opacity="0.02" d="M121.056 285.659H117.327V289.385H121.056V285.659Z" fill="white"/>
<path opacity="0.19" d="M110.864 290.752H107.135V294.478H110.864V290.752Z" fill="white"/>
<path opacity="0.06" d="M121.056 290.752H117.327V294.478H121.056V290.752Z" fill="white"/>
<path opacity="0.16" d="M110.864 295.845H107.135V299.572H110.864V295.845Z" fill="white"/>
<path opacity="0.19" d="M105.768 306.031H102.039V309.758H105.768V306.031Z" fill="white"/>
<path opacity="0.04" d="M121.056 306.031H117.327V309.758H121.056V306.031Z" fill="white"/>
<g opacity="0.7">
<path opacity="0.7" d="M136.468 232.74H132.615V324.292H136.468V232.74Z" fill="#E6E6E6"/>
<path opacity="0.7" d="M143.055 232.74H139.202V324.292H143.055V232.74Z" fill="#E6E6E6"/>
<path opacity="0.7" d="M149.767 232.74H145.914V324.292H149.767V232.74Z" fill="#E6E6E6"/>
<path opacity="0.7" d="M156.479 232.74H152.626V324.292H156.479V232.74Z" fill="#E6E6E6"/>
<path opacity="0.7" d="M163.191 232.74H159.338V324.292H163.191V232.74Z" fill="#E6E6E6"/>
</g>
<path d="M51.3286 169.262L43.6225 148.89L64.2549 169.262H51.3286Z" fill="#4D4D4D"/>
<path d="M33.3063 169.262L43.6225 148.89L51.3286 169.262H33.3063Z" fill="#333333"/>
<path d="M51.3286 169.262H33.3063V191.001H51.3286V169.262Z" fill="#333333"/>
<path d="M64.2548 169.262H51.3286V191.001H64.2548V169.262Z" fill="#4D4D4D"/>
<path d="M69.5994 267.025H15.0355V329.509H69.5994V267.025Z" fill="#333333"/>
<path d="M62.1419 222.305H22.6173V267.025H62.1419V222.305Z" fill="#333333"/>
<path d="M56.4245 177.585H28.3347V222.305H56.4245V177.585Z" fill="#333333"/>
<path d="M75.6896 177.585H56.3002V222.305H75.6896V177.585Z" fill="#4D4D4D"/>
<path d="M103.158 267.025H69.5994V329.509H103.158V267.025Z" fill="#4D4D4D"/>
<path d="M87.6216 222.305H62.1419V267.025H87.6216V222.305Z" fill="#4D4D4D"/>
<path opacity="0.53" d="M68.9779 180.815H63.1362V186.653H68.9779V180.815Z" fill="white"/>
<path opacity="0.34" d="M68.9779 188.144H63.1362V193.982H68.9779V188.144Z" fill="white"/>
<path opacity="0.9" d="M68.9779 195.349H63.1362V201.187H68.9779V195.349Z" fill="white"/>
<path opacity="0.14" d="M68.9779 202.554H63.1362V208.392H68.9779V202.554Z" fill="white"/>
<path d="M68.9779 209.883H63.1362V215.721H68.9779V209.883Z" fill="white"/>
<path opacity="0.29" d="M73.3282 226.156H67.4865V231.994H73.3282V226.156Z" fill="white"/>
<path opacity="0.81" d="M82.2771 226.156H76.4354V231.994H82.2771V226.156Z" fill="white"/>
<path opacity="0.18" d="M73.3282 233.485H67.4865V239.324H73.3282V233.485Z" fill="white"/>
<path opacity="0.41" d="M82.2771 233.485H76.4354V239.324H82.2771V233.485Z" fill="white"/>
<path opacity="0.03" d="M82.2771 240.938H76.4354V246.777H82.2771V240.938Z" fill="white"/>
<path opacity="0.85" d="M73.3282 248.392H67.4865V254.23H73.3282V248.392Z" fill="white"/>
<path opacity="0.06" d="M82.2771 248.392H76.4354V254.23H82.2771V248.392Z" fill="white"/>
<path opacity="0.94" d="M73.3282 255.721H67.4865V261.559H73.3282V255.721Z" fill="white"/>
<path opacity="0.25" d="M82.2771 255.721H76.4354V261.559H82.2771V255.721Z" fill="white"/>
<path opacity="0.6" d="M81.5313 270.876H75.6896V276.714H81.5313V270.876Z" fill="white"/>
<path opacity="0.83" d="M89.3617 270.876H83.52V276.714H89.3617V270.876Z" fill="white"/>
<path opacity="0.74" d="M97.192 270.876H91.3503V276.714H97.192V270.876Z" fill="white"/>
<path opacity="0.35" d="M89.3617 277.957H83.52V283.795H89.3617V277.957Z" fill="white"/>
<path opacity="0.54" d="M97.192 277.957H91.3503V283.795H97.192V277.957Z" fill="white"/>
<path opacity="0.2" d="M81.5313 285.037H75.6896V290.876H81.5313V285.037Z" fill="white"/>
<path opacity="0.04" d="M89.3617 285.037H83.52V290.876H89.3617V285.037Z" fill="white"/>
<path opacity="0.86" d="M97.192 285.037H91.3503V290.876H97.192V285.037Z" fill="white"/>
<path opacity="0.06" d="M81.5313 292.118H75.6896V297.957H81.5313V292.118Z" fill="white"/>
<path opacity="0.01" d="M89.3617 292.118H83.52V297.957H89.3617V292.118Z" fill="white"/>
<path opacity="0.39" d="M97.192 292.118H91.3503V297.957H97.192V292.118Z" fill="white"/>
<path opacity="0.1" d="M81.5313 299.323H75.6896V305.161H81.5313V299.323Z" fill="white"/>
<path d="M89.3617 299.323H83.52V305.161H89.3617V299.323Z" fill="white"/>
<path opacity="0.62" d="M97.192 299.323H91.3503V305.161H97.192V299.323Z" fill="white"/>
<path opacity="0.48" d="M81.5313 306.652H75.6896V312.491H81.5313V306.652Z" fill="white"/>
<path opacity="0.27" d="M89.3617 306.652H83.52V312.491H89.3617V306.652Z" fill="white"/>
<path opacity="0.42" d="M97.192 306.652H91.3503V312.491H97.192V306.652Z" fill="white"/>
<path opacity="0.27" d="M26.7189 270.876H20.8772V276.714H26.7189V270.876Z" fill="white"/>
<path opacity="0.11" d="M33.3063 226.156H27.4646V231.994H33.3063V226.156Z" fill="white"/>
<path opacity="0.41" d="M37.9051 180.815H32.0634V186.653H37.9051V180.815Z" fill="white"/>
<path opacity="0.38" d="M45.2383 180.815H39.3966V186.653H45.2383V180.815Z" fill="white"/>
<path opacity="0.02" d="M52.6957 180.815H46.8541V186.653H52.6957V180.815Z" fill="white"/>
<path opacity="0.46" d="M37.9051 188.144H32.0634V193.982H37.9051V188.144Z" fill="white"/>
<path opacity="0.31" d="M45.2383 188.144H39.3966V193.982H45.2383V188.144Z" fill="white"/>
<path opacity="0.61" d="M52.6957 188.144H46.8541V193.982H52.6957V188.144Z" fill="white"/>
<path opacity="0.03" d="M37.9051 195.349H32.0634V201.187H37.9051V195.349Z" fill="white"/>
<path opacity="0.03" d="M45.2383 195.349H39.3966V201.187H45.2383V195.349Z" fill="white"/>
<path opacity="0.46" d="M52.6957 195.349H46.8541V201.187H52.6957V195.349Z" fill="white"/>
<path opacity="0.32" d="M37.9051 202.554H32.0634V208.392H37.9051V202.554Z" fill="white"/>
<path opacity="0.14" d="M45.2383 202.554H39.3966V208.392H45.2383V202.554Z" fill="white"/>
<path opacity="0.3" d="M52.6957 202.554H46.8541V208.392H52.6957V202.554Z" fill="white"/>
<path opacity="0.04" d="M37.9051 209.883H32.0634V215.721H37.9051V209.883Z" fill="white"/>
<path opacity="0.64" d="M45.2383 209.883H39.3966V215.721H45.2383V209.883Z" fill="white"/>
<path opacity="0.05" d="M52.6957 209.883H46.8541V215.721H52.6957V209.883Z" fill="white"/>
<path opacity="0.15" d="M40.7638 226.156H34.9221V231.994H40.7638V226.156Z" fill="white"/>
<path opacity="0.15" d="M48.2213 226.156H42.3796V231.994H48.2213V226.156Z" fill="white"/>
<path opacity="0.52" d="M55.5544 226.156H49.7128V231.994H55.5544V226.156Z" fill="white"/>
<path opacity="0.58" d="M33.3063 233.485H27.4646V239.324H33.3063V233.485Z" fill="white"/>
<path opacity="0.62" d="M40.7638 233.485H34.9221V239.324H40.7638V233.485Z" fill="white"/>
<path opacity="0.04" d="M48.2213 233.485H42.3796V239.324H48.2213V233.485Z" fill="white"/>
<path opacity="0.06" d="M55.5544 233.485H49.7128V239.324H55.5544V233.485Z" fill="white"/>
<path opacity="0.3" d="M33.3063 240.938H27.4646V246.777H33.3063V240.938Z" fill="white"/>
<path opacity="0.01" d="M40.7638 240.938H34.9221V246.777H40.7638V240.938Z" fill="white"/>
<path opacity="0.37" d="M48.2213 240.938H42.3796V246.777H48.2213V240.938Z" fill="white"/>
<path opacity="0.62" d="M55.5544 240.938H49.7128V246.777H55.5544V240.938Z" fill="white"/>
<path opacity="0.54" d="M33.3063 248.392H27.4646V254.23H33.3063V248.392Z" fill="white"/>
<path opacity="0.21" d="M40.7638 248.392H34.9221V254.23H40.7638V248.392Z" fill="white"/>
<path opacity="0.41" d="M48.2213 248.392H42.3796V254.23H48.2213V248.392Z" fill="white"/>
<path opacity="0.1" d="M55.5544 248.392H49.7128V254.23H55.5544V248.392Z" fill="white"/>
<path opacity="0.17" d="M33.3063 255.721H27.4646V261.559H33.3063V255.721Z" fill="white"/>
<path opacity="0.17" d="M40.7638 255.721H34.9221V261.559H40.7638V255.721Z" fill="white"/>
<path opacity="0.13" d="M48.2213 255.721H42.3796V261.559H48.2213V255.721Z" fill="white"/>
<path opacity="0.5" d="M55.5544 255.721H49.7128V261.559H55.5544V255.721Z" fill="white"/>
<path opacity="0.06" d="M34.1764 270.876H28.3347V276.714H34.1764V270.876Z" fill="white"/>
<path opacity="0.27" d="M41.5095 270.876H35.6678V276.714H41.5095V270.876Z" fill="white"/>
<path opacity="0.51" d="M48.9671 270.876H43.1254V276.714H48.9671V270.876Z" fill="white"/>
<path opacity="0.42" d="M56.4245 270.876H50.5828V276.714H56.4245V270.876Z" fill="white"/>
<path opacity="0.64" d="M63.7576 270.876H57.916V276.714H63.7576V270.876Z" fill="white"/>
<path opacity="0.29" d="M26.7189 277.957H20.8772V283.795H26.7189V277.957Z" fill="white"/>
<path opacity="0.6" d="M34.1764 277.957H28.3347V283.795H34.1764V277.957Z" fill="white"/>
<path opacity="0.2" d="M41.5095 277.957H35.6678V283.795H41.5095V277.957Z" fill="white"/>
<path opacity="0.24" d="M48.9671 277.957H43.1254V283.795H48.9671V277.957Z" fill="white"/>
<path opacity="0.62" d="M56.4245 277.957H50.5828V283.795H56.4245V277.957Z" fill="white"/>
<path opacity="0.62" d="M63.7576 277.957H57.916V283.795H63.7576V277.957Z" fill="white"/>
<path opacity="0.25" d="M26.7189 285.037H20.8772V290.876H26.7189V285.037Z" fill="white"/>
<path opacity="0.36" d="M34.1764 285.037H28.3347V290.876H34.1764V285.037Z" fill="white"/>
<path opacity="0.16" d="M41.5095 285.037H35.6678V290.876H41.5095V285.037Z" fill="white"/>
<path opacity="0.1" d="M48.9671 285.037H43.1254V290.876H48.9671V285.037Z" fill="white"/>
<path opacity="0.04" d="M56.4245 285.037H50.5828V290.876H56.4245V285.037Z" fill="white"/>
<path opacity="0.44" d="M63.7576 285.037H57.916V290.876H63.7576V285.037Z" fill="white"/>
<path opacity="0.68" d="M26.7189 292.118H20.8772V297.957H26.7189V292.118Z" fill="white"/>
<path opacity="0.01" d="M34.1764 292.118H28.3347V297.957H34.1764V292.118Z" fill="white"/>
<path opacity="0.29" d="M41.5095 292.118H35.6678V297.957H41.5095V292.118Z" fill="white"/>
<path opacity="0.66" d="M48.9671 292.118H43.1254V297.957H48.9671V292.118Z" fill="white"/>
<path opacity="0.12" d="M56.4245 292.118H50.5828V297.957H56.4245V292.118Z" fill="white"/>
<path opacity="0.34" d="M63.7576 292.118H57.916V297.957H63.7576V292.118Z" fill="white"/>
<path opacity="0.36" d="M26.7189 299.323H20.8772V305.161H26.7189V299.323Z" fill="white"/>
<path opacity="0.5" d="M34.1764 299.323H28.3347V305.161H34.1764V299.323Z" fill="white"/>
<path opacity="0.07" d="M41.5095 299.323H35.6678V305.161H41.5095V299.323Z" fill="white"/>
<path opacity="0.64" d="M48.9671 299.323H43.1254V305.161H48.9671V299.323Z" fill="white"/>
<path opacity="0.4" d="M56.4245 299.323H50.5828V305.161H56.4245V299.323Z" fill="white"/>
<path opacity="0.27" d="M63.7576 299.323H57.916V305.161H63.7576V299.323Z" fill="white"/>
<path opacity="0.09" d="M26.7189 306.652H20.8772V312.491H26.7189V306.652Z" fill="white"/>
<path opacity="0.47" d="M34.1764 306.652H28.3347V312.491H34.1764V306.652Z" fill="white"/>
<path opacity="0.57" d="M41.5095 306.652H35.6678V312.491H41.5095V306.652Z" fill="white"/>
<path opacity="0.12" d="M48.9671 306.652H43.1254V312.491H48.9671V306.652Z" fill="white"/>
<path opacity="0.23" d="M56.4245 306.652H50.5828V312.491H56.4245V306.652Z" fill="white"/>
<path opacity="0.36" d="M63.7576 306.652H57.916V312.491H63.7576V306.652Z" fill="white"/>
<path d="M188.422 324.292H111.113L188.422 256.963V324.292Z" fill="#333333"/>
<path d="M22.6173 325.658H-84.5217L22.6173 232.491V325.658Z" fill="#333333"/>
<path d="M179.846 308.888H157.225V315.845H179.846V308.888Z" fill="#4D4D4D"/>
<path d="M177.236 311H159.711L165.801 300.814H171.145L177.236 311Z" fill="#4D4D4D"/>
<path d="M83.1472 318.702C83.1472 323.546 79.2941 327.521 74.5711 327.521C69.848 327.521 65.9949 323.546 65.9949 318.702C65.9949 313.857 69.848 309.882 74.5711 309.882C79.2941 309.758 83.1472 313.733 83.1472 318.702Z" fill="#333333"/>
<path d="M313.956 314.851C313.956 318.081 311.346 320.814 308.238 320.814C305.131 320.814 302.521 318.205 302.521 314.851C302.521 311.621 305.131 308.888 308.238 308.888C311.346 308.888 313.956 311.621 313.956 314.851Z" fill="#333333"/>
<path d="M113.723 315.223C113.723 318.577 111.113 321.31 107.757 321.31C104.525 321.31 101.791 318.577 101.791 315.223C101.791 311.869 104.401 309.136 107.757 309.136C111.113 309.136 113.723 311.869 113.723 315.223Z" fill="#333333"/>
</svg>
